{
    "asset": {
        "version": "2.0",
        "generator": "This 3D model is generated by KIRI Engine App"
    },
    "extensionsUsed": [
        "KHR_materials_pbrSpecularGlossiness",
        "FB_ngon_encoding"
    ],
    "accessors": [
        {
            "bufferView": 0,
            "byteOffset": 0,
            "componentType": 5126,
            "count": 14170,
            "type": "VEC3",
            "max": [
                0.06841199845075607,
                0.06696099787950516,
                0.06784699857234955
            ],
            "min": [
                -0.04684799909591675,
                -0.08657799661159516,
                -0.09186799824237824
            ]
        },
        {
            "bufferView": 1,
            "byteOffset": 0,
            "componentType": 5126,
            "count": 14170,
            "type": "VEC3",
            "max": [
                0.9994935393333435,
                0.9991142153739929,
                0.9998432993888855
            ],
            "min": [
                -0.9999947547912598,
                -0.9472206830978394,
                -0.9991075396537781
            ]
        },
        {
            "bufferView": 2,
            "byteOffset": 0,
            "componentType": 5126,
            "count": 14170,
            "type": "VEC2",
            "max": [
                0.9705430269241333,
                0.811210036277771
            ],
            "min": [
                0.178506001830101,
                0.0010020136833190919
            ]
        },
        {
            "bufferView": 3,
            "byteOffset": 0,
            "componentType": 5125,
            "count": 45285,
            "type": "SCALAR",
            "max": [
                14169
            ],
            "min": [
                0
            ]
        }
    ],
    "buffers": [
        {
            "byteLength": 634580,
            "uri": "3DModel.bin"
        }
    ],
    "bufferViews": [
        {
            "buffer": 0,
            "byteOffset": 0,
            "byteLength": 170040,
            "target": 34962
        },
        {
            "buffer": 0,
            "byteOffset": 170040,
            "byteLength": 170040,
            "target": 34962
        },
        {
            "buffer": 0,
            "byteOffset": 340080,
            "byteLength": 113360,
            "target": 34962
        },
        {
            "buffer": 0,
            "byteOffset": 453440,
            "byteLength": 181140,
            "target": 34963
        }
    ],
    "images": [
        {
            "uri": "data:image/jpeg;base64,"
        }
    ],
    "materials": [
        {
            "name": "Solid",
            "pbrMetallicRoughness": {
                "metallicFactor": 0.0
            },
            "extensions": {
                "KHR_materials_pbrSpecularGlossiness": {
                    "specularFactor": [
                        0.0,
                        0.0,
                        0.0
                    ],
                    "glossinessFactor": 0.0
                }
            }
        },
        {
            "name": "3DModel",
            "pbrMetallicRoughness": {
                "baseColorTexture": {
                    "index": 0
                },
                "metallicFactor": 0.0
            },
            "extensions": {
                "KHR_materials_pbrSpecularGlossiness": {
                    "specularFactor": [
                        0.0,
                        0.0,
                        0.0
                    ],
                    "glossinessFactor": 0.0,
                    "diffuseTexture": {
                        "index": 0
                    }
                }
            }
        }
    ],
    "meshes": [
        {
            "name": "3DModel",
            "primitives": [
                {
                    "mode": 4,
                    "material": 1,
                    "indices": 3,
                    "attributes": {
                        "POSITION": 0,
                        "NORMAL": 1,
                        "TEXCOORD_0": 2
                    }
                }
            ]
        }
    ],
    "nodes": [
        {
            "name": "3DModel.obj",
            "children": [
                1
            ]
        },
        {
            "name": "3DModel",
            "mesh": 0
        }
    ],
    "samplers": [
        {}
    ],
    "scenes": [
        {
            "nodes": [
                0
            ]
        }
    ],
    "textures": [
        {
            "source": 0,
            "sampler": 0
        }
    ],
    "scene": 0
}