{
	"asset":{
		"generator":"Khronos glTF Blender I/O v4.3.47",
		"version":"2.0"
	},
	"extensionsUsed":[
		"KHR_materials_specular",
		"KHR_materials_ior"
	],
	"scene":0,
	"scenes":[
		{
			"name":"Scene",
			"nodes":[
				1
			]
		}
	],
	"nodes":[
		{
			"mesh":0,
			"name":"3DModel_LowPoly",
			"rotation":[
				0,
				-0.012821568176150322,
				0.01260063424706459,
				0.9998384118080139
			],
			"translation":[
				-0.007480969652533531,
				0.0478963777422905,
				0.04873616620898247
			]
		},
		{
			"children":[
				0
			],
			"name":"3DModel_LowPoly.obj",
			"rotation":[
				-0.38611966371536255,
				0.021073147654533386,
				-0.050256308168172836,
				0.9208375811576843
			]
		}
	],
	"materials":[
		{
			"extensions":{
				"KHR_materials_specular":{
					"specularColorFactor":[
						0.0,
						0.0,
						0.0
					]
				},
				"KHR_materials_ior":{
					"ior":1000
				}
			},
			"name":"3DModel_LowPoly",
			"pbrMetallicRoughness":{
				"baseColorTexture":{
					"index":0
				},
				"metallicFactor":0
			}
		}
	],
	"meshes":[
		{
			"name":"3DModel_LowPoly",
			"primitives":[
				{
					"attributes":{
						"POSITION":0,
						"NORMAL":1,
						"TEXCOORD_0":2
					},
					"indices":3,
					"material":0
				}
			]
		}
	],
	"textures":[
		{
			"sampler":0,
			"source":0
		}
	],
	"images":[
		{
			"mimeType":"image/jpeg",
			"name":"Image_0",
			"uri":"Image_0.jpg"
		}
	],
	"accessors":[
		{
			"bufferView":0,
			"componentType":5126,
			"count":1619,
			"max":[
				0.05228507146239281,
				0.06687799841165543,
				0.06768199801445007
			],
			"min":[
				-0.03838000074028969,
				-0.08640964329242706,
				-0.07890496402978897
			],
			"type":"VEC3"
		},
		{
			"bufferView":1,
			"componentType":5126,
			"count":1619,
			"type":"VEC3"
		},
		{
			"bufferView":2,
			"componentType":5126,
			"count":1619,
			"type":"VEC2"
		},
		{
			"bufferView":3,
			"componentType":5123,
			"count":4173,
			"type":"SCALAR"
		}
	],
	"bufferViews":[
		{
			"buffer":0,
			"byteLength":19428,
			"byteOffset":0,
			"target":34962
		},
		{
			"buffer":0,
			"byteLength":19428,
			"byteOffset":19428,
			"target":34962
		},
		{
			"buffer":0,
			"byteLength":12952,
			"byteOffset":38856,
			"target":34962
		},
		{
			"buffer":0,
			"byteLength":8346,
			"byteOffset":51808,
			"target":34963
		}
	],
	"samplers":[
		{
			"magFilter":9729,
			"minFilter":9987
		}
	],
	"buffers":[
		{
			"byteLength":60156,
			"uri":"caixinha1.bin"
		}
	]
}
