{
	"asset":{
		"generator":"Khronos glTF Blender I/O v4.3.47",
		"version":"2.0"
	},
	"scene":0,
	"scenes":[
		{
			"name":"Scene",
			"nodes":[
				0
			]
		}
	],
	"nodes":[
		{
			"mesh":0,
			"name":"Mesh_0"
		}
	],
	"materials":[
		{
			"name":"Material_0",
			"normalTexture":{
				"index":0
			},
			"occlusionTexture":{
				"index":1
			},
			"pbrMetallicRoughness":{
				"baseColorTexture":{
					"index":2
				},
				"metallicFactor":0
			}
		}
	],
	"meshes":[
		{
			"name":"Mesh_0",
			"primitives":[
				{
					"attributes":{
						"POSITION":0,
						"NORMAL":1,
						"TEXCOORD_0":2
					},
					"indices":3,
					"material":0
				}
			]
		}
	],
	"textures":[
		{
			"sampler":0,
			"source":0
		},
		{
			"sampler":0,
			"source":1
		},
		{
			"sampler":0,
			"source":2
		}
	],
	"images":[
		{
			"mimeType":"image/jpeg",
			"name":"4ca4c972210cce2ebdc80755243dc50a",
			"uri":"4ca4c972210cce2ebdc80755243dc50a.jpg"
		},
		{
			"mimeType":"image/jpeg",
			"name":"cb0225161be1dd43b4cf51052ea7da99",
			"uri":"cb0225161be1dd43b4cf51052ea7da99.jpg"
		},
		{
			"mimeType":"image/jpeg",
			"name":"8e2b75f03593d2dd67c9042ba2db0a36",
			"uri":"8e2b75f03593d2dd67c9042ba2db0a36.jpg"
		}
	],
	"accessors":[
		{
			"bufferView":0,
			"componentType":5126,
			"count":50973,
			"max":[
				0.5199668407440186,
				0.4981176257133484,
				0.6398960947990417
			],
			"min":[
				-0.30845746397972107,
				0.02799864113330841,
				-0.20820599794387817
			],
			"type":"VEC3"
		},
		{
			"bufferView":1,
			"componentType":5126,
			"count":50973,
			"type":"VEC3"
		},
		{
			"bufferView":2,
			"componentType":5126,
			"count":50973,
			"type":"VEC2"
		},
		{
			"bufferView":3,
			"componentType":5123,
			"count":50979,
			"type":"SCALAR"
		}
	],
	"bufferViews":[
		{
			"buffer":0,
			"byteLength":611676,
			"byteOffset":0,
			"target":34962
		},
		{
			"buffer":0,
			"byteLength":611676,
			"byteOffset":611676,
			"target":34962
		},
		{
			"buffer":0,
			"byteLength":407784,
			"byteOffset":1223352,
			"target":34962
		},
		{
			"buffer":0,
			"byteLength":101958,
			"byteOffset":1631136,
			"target":34963
		}
	],
	"samplers":[
		{
			"magFilter":9729,
			"minFilter":9987
		}
	],
	"buffers":[
		{
			"byteLength":1733096,
			"uri":"tenis.bin"
		}
	]
}
