{
    "asset": {
        "version": "2.0",
        "generator": "This 3D model is generated by KIRI Engine App"
    },
    "extensionsUsed": [
        "KHR_materials_pbrSpecularGlossiness",
        "FB_ngon_encoding"
    ],
    "accessors": [
        {
            "bufferView": 0,
            "byteOffset": 0,
            "componentType": 5126,
            "count": 1382,
            "type": "VEC3",
            "max": [
                0.06840799748897553,
                0.06687799841165543,
                0.06768199801445008
            ],
            "min": [
                -0.04684299975633621,
                -0.08645900338888169,
                -0.09178200364112854
            ]
        },
        {
            "bufferView": 1,
            "byteOffset": 0,
            "componentType": 5126,
            "count": 1382,
            "type": "VEC3",
            "max": [
                0.9991382360458374,
                0.9993683099746704,
                0.9971952438354492
            ],
            "min": [
                -0.9974333047866821,
                -0.8309723138809204,
                -0.9133228659629822
            ]
        },
        {
            "bufferView": 2,
            "byteOffset": 0,
            "componentType": 5126,
            "count": 1382,
            "type": "VEC2",
            "max": [
                0.667514979839325,
                0.9483200311660767
            ],
            "min": [
                0.11716599762439728,
                0.49873197078704836
            ]
        },
        {
            "bufferView": 3,
            "byteOffset": 0,
            "componentType": 5125,
            "count": 4113,
            "type": "SCALAR",
            "max": [
                1381
            ],
            "min": [
                0
            ]
        }
    ],
    "buffers": [
        {
            "byteLength": 60676,
            "uri": "3DModel_LowPoly.bin"
        }
    ],
    "bufferViews": [
        {
            "buffer": 0,
            "byteOffset": 0,
            "byteLength": 16584,
            "target": 34962
        },
        {
            "buffer": 0,
            "byteOffset": 16584,
            "byteLength": 16584,
            "target": 34962
        },
        {
            "buffer": 0,
            "byteOffset": 33168,
            "byteLength": 11056,
            "target": 34962
        },
        {
            "buffer": 0,
            "byteOffset": 44224,
            "byteLength": 16452,
            "target": 34963
        }
    ],
    "images": [
        {
            "uri": "data:image/jpeg;base64,"
        }
    ],
    "materials": [
        {
            "name": "Solid",
            "pbrMetallicRoughness": {
                "metallicFactor": 0.0
            },
            "extensions": {
                "KHR_materials_pbrSpecularGlossiness": {
                    "specularFactor": [
                        0.0,
                        0.0,
                        0.0
                    ],
                    "glossinessFactor": 0.0
                }
            }
        },
        {
            "name": "3DModel_LowPoly",
            "pbrMetallicRoughness": {
                "baseColorTexture": {
                    "index": 0
                },
                "metallicFactor": 0.0
            },
            "extensions": {
                "KHR_materials_pbrSpecularGlossiness": {
                    "specularFactor": [
                        0.0,
                        0.0,
                        0.0
                    ],
                    "glossinessFactor": 0.0,
                    "diffuseTexture": {
                        "index": 0
                    }
                }
            }
        }
    ],
    "meshes": [
        {
            "name": "3DModel_LowPoly",
            "primitives": [
                {
                    "mode": 4,
                    "material": 1,
                    "indices": 3,
                    "attributes": {
                        "POSITION": 0,
                        "NORMAL": 1,
                        "TEXCOORD_0": 2
                    }
                }
            ]
        }
    ],
    "nodes": [
        {
            "name": "3DModel_LowPoly.obj",
            "children": [
                1
            ]
        },
        {
            "name": "3DModel_LowPoly",
            "mesh": 0
        }
    ],
    "samplers": [
        {}
    ],
    "scenes": [
        {
            "nodes": [
                0
            ]
        }
    ],
    "textures": [
        {
            "source": 0,
            "sampler": 0
        }
    ],
    "scene": 0
}